<?xml version="1.0" encoding="UTF-8"?>
<!DOCTYPE svg PUBLIC "-//W3C//DTD SVG 1.1//EN" "http://www.w3.org/Graphics/SVG/1.1/DTD/svg11.dtd">
<!-- Creator: CorelDRAW X8 -->
<svg xmlns="http://www.w3.org/2000/svg" xml:space="preserve" width="100%" height="100%" version="1.1" style="shape-rendering:geometricPrecision; text-rendering:geometricPrecision; image-rendering:optimizeQuality; fill-rule:evenodd; clip-rule:evenodd"
viewBox="0 0 9936 2266"
 xmlns:xlink="http://www.w3.org/1999/xlink">
 <defs>
  <style type="text/css">
   <![CDATA[
    .fil1 {fill:#03A9F4}
    .fil0 {fill:#8BC34A}
    .fil2 {fill:black;fill-rule:nonzero}
   ]]>
  </style>
 </defs>
 <g id="Слой_x0020_1">
  <metadata id="CorelCorpID_0Corel-Layer"/>
  <path class="fil0" d="M1765 501c86,86 86,226 0,312 -86,86 -226,86 -312,0 -86,-86 -86,-226 0,-312 86,-86 226,-86 312,0zm-1264 1264c-86,-86 -86,-226 0,-312 86,-86 226,-86 312,0 86,86 86,226 0,312 -86,86 -226,86 -312,0zm1579 -1579c248,248 248,650 0,898l-240 240c-145,-145 -107,-276 49,-431 142,-143 142,-373 0,-516 -143,-142 -374,-142 -516,0l-191 -191c248,-248 650,-248 898,0zm-1894 1894c-248,-248 -248,-650 0,-898l240 -240c145,144 107,275 -49,431 -142,142 -142,373 0,516 143,142 373,142 516,0l191 191c-248,248 -650,248 -898,0z"/>
  <path class="fil1" d="M501 501c86,-86 226,-86 312,0 86,86 86,226 0,312 -86,86 -226,86 -312,0 -86,-86 -86,-226 0,-312zm1264 1264c-86,86 -226,86 -312,0 -86,-86 -86,-226 0,-312 86,-86 226,-86 312,0 86,86 86,226 0,312zm-1579 -1579c248,-248 650,-248 898,0l240 240c-145,145 -276,107 -431,-49 -143,-142 -373,-142 -516,0 -142,143 -142,373 0,516l-191 191c-248,-248 -248,-650 0,-898zm1894 1894c-248,248 -650,248 -898,0l-240 -240c144,-145 275,-107 431,49 142,142 373,142 516,0 142,-143 142,-374 0,-516l191 -191c248,248 248,650 0,898z"/>
  <g id="_2299396332768">
   <path class="fil2" d="M2957 1055l99 -19 0 -667 -99 -19 0 -113 380 0 0 113 -94 19 0 248 83 0 175 -251c37,-52 70,-88 98,-108 28,-20 66,-30 114,-30 21,0 42,3 60,9 19,6 36,14 52,24l-31 140c-14,-3 -23,-5 -28,-6 -5,-1 -12,-2 -20,-2 -20,0 -38,6 -54,17 -17,11 -37,31 -60,62l-146 199 257 368 98 16 0 112 -369 0 0 -112 54 -7 -174 -262 -109 0 0 250 94 19 0 112 -380 0 0 -112zm1766 -346c0,136 -39,249 -118,338 -77,89 -179,133 -305,134 -126,-1 -227,-45 -305,-134 -77,-89 -116,-202 -116,-338l0 -14c0,-135 39,-248 116,-337 77,-90 178,-134 304,-134 126,0 228,44 306,134 78,89 118,202 118,337l0 14zm-186 -15c0,-96 -20,-175 -60,-235 -40,-59 -100,-90 -178,-90 -78,0 -137,30 -175,90 -39,59 -58,138 -58,235l0 15c0,98 19,177 58,237 39,60 98,89 176,89 78,0 138,-29 177,-89 40,-60 60,-139 60,-237l0 -15zm1157 -215l-3 0 -249 688 -126 0 -247 -686 -4 1 18 408 0 146 99 19 0 112 -385 0 0 -112 99 -19 0 -667 -99 -19 0 -113 99 0 243 0 237 686 4 0 239 -686 344 0 0 113 -100 19 0 667 100 19 0 112 -385 0 0 -112 99 -19 0 -146 17 -411zm326 576l66 -9 283 -809 191 0 281 809 66 9 0 112 -317 0 0 -112 65 -11 -41 -128 -301 0 -41 128 64 11 0 112 -316 0 0 -112zm337 -276l213 0 -105 -328 -4 0 -104 328zm612 -429l0 -113 385 0 0 113 -100 19 0 268 380 0 0 -268 -100 -19 0 -113 100 0 185 0 100 0 0 113 -100 19 0 667 100 19 0 112 -385 0 0 -112 100 -19 0 -255 -380 0 0 255 100 19 0 112 -385 0 0 -112 99 -19 0 -667 -99 -19zm1952 1046l-169 0 0 -229 -570 0 0 229 -172 0 -14 -372 71 0c34,-28 62,-74 87,-135 25,-62 39,-152 44,-271l17 -251 -91 -17 0 -113 804 0 0 113 -99 19 0 655 110 0 -18 372zm-536 -778c-4,94 -15,174 -34,240 -18,65 -42,121 -72,166l363 0 0 -643 -242 0 -15 237zm626 437l67 -9 283 -809 191 0 281 809 66 9 0 112 -317 0 0 -112 65 -11 -41 -128 -301 0 -41 128 64 11 0 112 -317 0 0 -112zm338 -276l213 0 -105 -328 -4 0 -104 328z"/>
   <path class="fil2" d="M3078 1773l-49 0 0 147 -35 0 0 -318 35 0 0 141 48 0 117 -141 44 0 -130 154 145 164 -47 0 -128 -147zm200 -17c0,-31 6,-58 18,-83 11,-24 28,-43 50,-57 21,-13 46,-20 73,-20 43,0 77,15 103,44 27,30 40,69 40,118l0 8c0,31 -6,58 -18,83 -12,24 -29,43 -50,57 -22,13 -46,20 -74,20 -42,0 -76,-15 -103,-45 -26,-30 -39,-69 -39,-118l0 -7zm35 10c0,38 10,69 30,94 19,24 45,36 77,36 32,0 57,-12 77,-36 20,-25 30,-57 30,-97l0 -7c0,-24 -5,-46 -14,-67 -9,-20 -22,-35 -38,-46 -16,-12 -35,-17 -56,-17 -31,0 -57,12 -76,37 -20,24 -30,57 -30,96l0 7zm497 106l127 -270 43 0 0 318 -35 0 0 -261 -122 261 -25 0 -125 -267 0 267 -35 0 0 -318 46 0 126 270zm509 48l-36 0 0 -288 -171 0 0 288 -35 0 0 -318 242 0 0 318zm132 -203l92 0c24,0 44,5 62,13 18,9 31,20 40,36 9,15 14,32 14,52 0,31 -11,55 -32,74 -21,18 -49,28 -85,28l-126 0 0 -318 35 0 0 115zm0 30l0 143 91 0c26,0 46,-6 60,-19 14,-13 22,-30 22,-52 0,-21 -7,-38 -21,-51 -14,-13 -34,-20 -58,-21l-94 0zm323 0l90 0c1,-29 8,-55 20,-79 13,-23 29,-41 51,-53 21,-13 44,-19 71,-19 42,0 76,15 102,44 27,30 40,70 40,119l0 7c0,30 -6,58 -18,83 -12,24 -29,43 -50,57 -22,13 -46,20 -74,20 -40,0 -74,-14 -100,-42 -26,-27 -40,-63 -42,-107l-90 0 0 143 -36 0 0 -318 36 0 0 145zm125 19c0,38 10,69 30,94 19,24 45,36 77,36 32,0 57,-12 77,-36 20,-25 30,-57 30,-97l0 -7c0,-38 -10,-69 -30,-93 -20,-25 -46,-37 -77,-37 -32,0 -58,12 -77,37 -20,24 -30,57 -30,96l0 7zm553 -134l-115 0 0 288 -36 0 0 -288 -111 0 0 -30 262 0 0 30zm158 294c-27,0 -52,-7 -74,-20 -21,-14 -38,-32 -50,-56 -13,-24 -19,-51 -19,-80l0 -13c0,-30 6,-58 18,-82 12,-25 28,-44 50,-58 21,-14 44,-21 68,-21 39,0 70,13 92,39 23,27 34,63 34,108l0 20 -227 0 0 7c0,36 11,66 31,90 21,24 47,36 78,36 19,0 36,-3 50,-10 15,-7 28,-18 39,-33l22 16c-25,38 -63,57 -112,57zm-7 -300c-26,0 -48,10 -67,29 -18,19 -29,45 -33,78l191 0 0 -4c-1,-30 -10,-55 -26,-74 -16,-19 -38,-29 -65,-29zm450 138c0,49 -11,89 -33,118 -22,29 -51,44 -88,44 -43,0 -77,-16 -100,-46l0 162 -35 0 0 -440 33 0 2 45c23,-34 56,-51 99,-51 38,0 68,14 90,43 21,29 32,69 32,120l0 5zm-35 -6c0,-41 -8,-73 -25,-96 -17,-24 -40,-36 -70,-36 -21,0 -40,6 -55,16 -16,10 -28,26 -36,45l0 153c9,18 21,32 36,42 16,9 34,14 56,14 29,0 53,-12 69,-35 17,-24 25,-58 25,-103zm357 162l-35 0 0 -146 -171 0 0 146 -36 0 0 -318 36 0 0 142 171 0 0 -142 35 0 0 318zm133 -203l92 0c23,0 44,5 62,13 17,9 31,20 40,36 9,15 14,32 14,52 0,31 -11,55 -32,74 -21,18 -49,28 -85,28l-126 0 0 -318 35 0 0 115zm0 30l0 143 91 0c26,0 45,-6 60,-19 14,-13 21,-30 21,-52 0,-21 -7,-38 -21,-51 -14,-13 -33,-20 -57,-21l-94 0zm316 173l-36 0 0 -318 36 0 0 318zm197 -189l86 -129 42 0 -108 156 113 162 -42 0 -90 -135 -91 135 -41 0 112 -162 -108 -156 42 0 85 129zm516 141l126 -270 44 0 0 318 -36 0 0 -261 -122 261 -25 0 -125 -267 0 267 -35 0 0 -318 47 0 126 270zm464 48c-3,-10 -5,-25 -6,-45 -13,16 -28,29 -48,38 -19,8 -39,13 -60,13 -31,0 -55,-9 -74,-26 -19,-17 -29,-39 -29,-65 0,-31 13,-55 39,-73 26,-18 62,-27 108,-27l63 0 0 -36c0,-23 -7,-41 -21,-54 -14,-13 -34,-20 -61,-20 -24,0 -45,7 -61,19 -16,13 -24,28 -24,46l-35 -1c0,-25 12,-47 35,-65 24,-19 53,-28 87,-28 35,0 63,9 84,26 20,18 31,43 31,75l0 150c0,31 4,54 10,69l0 4 -38 0zm-110 -25c23,0 44,-6 63,-17 18,-12 32,-27 40,-46l0 -70 -62 0c-36,0 -63,7 -83,19 -20,13 -29,30 -29,52 0,18 6,32 19,44 14,12 31,18 52,18zm350 1c24,0 45,-7 61,-21 17,-13 26,-31 27,-53l34 0c-1,19 -7,37 -18,53 -12,16 -26,28 -45,37 -18,9 -38,14 -59,14 -42,0 -75,-15 -100,-44 -24,-29 -36,-68 -36,-117l0 -11c0,-31 5,-59 16,-83 11,-24 27,-42 47,-56 21,-13 45,-19 72,-19 35,0 64,10 87,31 22,21 34,48 36,82l-34 0c-1,-25 -11,-45 -27,-60 -16,-16 -37,-23 -62,-23 -31,0 -56,11 -74,34 -17,23 -26,55 -26,97l0 10c0,41 9,72 26,95 18,23 43,34 75,34zm421 -264l-116 0 0 288 -35 0 0 -288 -112 0 0 -30 263 0 0 30zm157 294c-27,0 -52,-7 -73,-20 -22,-14 -39,-32 -51,-56 -13,-24 -19,-51 -19,-80l0 -13c0,-30 6,-58 18,-82 12,-25 29,-44 50,-58 21,-14 44,-21 68,-21 39,0 70,13 92,39 23,27 34,63 34,108l0 20 -227 0 0 7c0,36 11,66 31,90 21,24 47,36 78,36 19,0 36,-3 50,-10 15,-7 28,-18 39,-33l22 16c-25,38 -63,57 -112,57zm-7 -300c-26,0 -48,10 -66,29 -19,19 -30,45 -34,78l191 0 0 -4c-1,-30 -9,-55 -26,-74 -16,-19 -38,-29 -65,-29zm450 138c0,49 -11,89 -33,118 -22,29 -51,44 -88,44 -43,0 -77,-16 -100,-46l0 162 -35 0 0 -440 33 0 2 45c23,-34 56,-51 99,-51 38,0 68,14 90,43 21,29 32,69 32,120l0 5zm-35 -6c0,-41 -8,-73 -25,-96 -17,-24 -40,-36 -70,-36 -21,0 -40,6 -55,16 -16,10 -28,26 -36,45l0 153c9,18 21,32 36,42 16,9 35,14 56,14 30,0 53,-12 69,-35 17,-24 25,-58 25,-103zm94 -2c0,-31 6,-58 18,-83 11,-24 28,-43 50,-57 22,-13 46,-20 73,-20 43,0 77,15 103,44 27,30 40,69 40,118l0 8c0,31 -6,58 -18,83 -12,24 -29,43 -50,57 -22,13 -46,20 -74,20 -42,0 -76,-15 -103,-45 -26,-30 -39,-69 -39,-118l0 -7zm35 10c0,38 10,69 30,94 19,24 45,36 77,36 32,0 57,-12 77,-36 20,-25 30,-57 30,-97l0 -7c0,-24 -5,-46 -14,-67 -9,-20 -21,-35 -38,-46 -16,-12 -35,-17 -56,-17 -31,0 -56,12 -76,37 -20,24 -30,57 -30,96l0 7zm325 154l0 -318 117 0c40,0 71,7 93,21 21,15 32,36 32,64 0,16 -5,30 -14,42 -10,13 -24,22 -42,27 20,4 37,13 50,27 12,14 19,30 19,48 0,29 -11,50 -31,66 -21,15 -50,23 -88,23l-136 0zm35 -147l0 117 102 0c27,0 47,-5 61,-15 14,-10 22,-25 22,-44 0,-18 -8,-32 -22,-42 -14,-10 -34,-16 -61,-16l-102 0zm0 -29l89 0c55,-1 83,-20 83,-56 0,-20 -8,-34 -23,-43 -15,-9 -37,-13 -67,-13l-82 0 0 112z"/>
  </g>
 </g>
</svg>
