<?xml version="1.0" encoding="UTF-8"?>
<!DOCTYPE svg PUBLIC "-//W3C//DTD SVG 1.1//EN" "http://www.w3.org/Graphics/SVG/1.1/DTD/svg11.dtd">
<!-- Creator: CorelDRAW X8 -->
<svg xmlns="http://www.w3.org/2000/svg" xml:space="preserve" width="100%" height="100%" version="1.1" style="shape-rendering:geometricPrecision; text-rendering:geometricPrecision; image-rendering:optimizeQuality; fill-rule:evenodd; clip-rule:evenodd"
viewBox="0 0 4531 4531"
 xmlns:xlink="http://www.w3.org/1999/xlink">
 <defs>
  <style type="text/css">
   <![CDATA[
    .fil1 {fill:#03A9F4}
    .fil0 {fill:#8BC34A}
   ]]>
  </style>
 </defs>
 <g id="Слой_x0020_1">
  <metadata id="CorelCorpID_0Corel-Layer"/>
  <g id="_2619466981248">
   <path class="fil0" d="M3529 1002c173,172 173,451 0,623 -172,173 -451,173 -623,0 -172,-172 -172,-451 0,-623 172,-172 451,-172 623,0z"/>
   <path class="fil0" d="M4159 372c496,496 496,1300 0,1796l-480 480c-289,-290 -213,-551 98,-862 285,-285 285,-747 0,-1032 -285,-285 -747,-285 -1032,0l-382 -382c496,-496 1300,-496 1796,0z"/>
  </g>
  <g id="_2619466981056">
   <path class="fil1" d="M3529 3529c-172,173 -451,173 -623,0 -172,-172 -172,-451 0,-623 172,-172 451,-172 623,0 173,172 173,451 0,623z"/>
   <path class="fil1" d="M4159 4159c-496,496 -1300,496 -1796,0l-480 -480c290,-289 551,-213 862,98 285,285 747,285 1032,0 285,-285 285,-747 0,-1032l382 -382c496,496 496,1300 0,1796z"/>
  </g>
  <g id="_2619466981280">
   <path class="fil0" d="M1002 3529c-172,-172 -172,-451 0,-623 172,-172 451,-172 623,0 173,172 173,451 0,623 -172,173 -451,173 -623,0z"/>
   <path class="fil0" d="M372 4159c-496,-496 -496,-1300 0,-1796l480 -480c289,290 213,551 -98,862 -285,285 -285,747 0,1032 285,285 747,285 1032,0l382 382c-496,496 -1300,496 -1796,0z"/>
  </g>
  <g id="_2619466982368">
   <path class="fil1" d="M1002 1002c172,-172 451,-172 623,0 173,172 173,451 0,623 -172,173 -451,173 -623,0 -172,-172 -172,-451 0,-623z"/>
   <path class="fil1" d="M372 372c496,-496 1300,-496 1796,0l480 480c-290,289 -551,213 -862,-98 -285,-285 -747,-285 -1032,0 -285,285 -285,747 0,1032l-382 382c-496,-496 -496,-1300 0,-1796z"/>
  </g>
 </g>
</svg>
